<?xml version="1.0" encoding="UTF-8"?>
<svg id="Layer_2" data-name="Layer 2" xmlns="http://www.w3.org/2000/svg" viewBox="0 0 931.75 990.57">
  <defs>
    <style>
      .cls-1 {
        fill: none;
        stroke: #fff;
        stroke-miterlimit: 10;
        stroke-width: 9px;
      }

      .cls-2 {
        fill: #fff;
      }
    </style>
  </defs>
  <g id="Layer_9" data-name="Layer 9">
    <g>
      <path class="cls-2" d="M184.2,78.45l24.79,96.29-16.89-1.11-52.95-55.97,45.05-39.2M191.54,54.83l-15.88,13.81-45.05,39.2-10.22,8.9,9.31,9.85,52.95,55.97,3.5,3.7,5.08.34,16.89,1.11,17.92,1.18-4.48-17.4-24.79-96.29-5.25-20.38h0Z"/>
      <path class="cls-2" d="M132.53,160.12l22.43,23.94-14.89,5.74-30.48-19.35,22.94-10.33M135.67,144.45l-8.47,3.82-22.94,10.33-21.98,9.9,20.35,12.92,30.48,19.35,5.53,3.51,6.11-2.36,14.89-5.74,18-6.94-13.19-14.08-22.43-23.94-6.35-6.78h0Z"/>
      <path class="cls-2" d="M688.62,312.15l-127.5-55.65-49.95-85.87-93.74-43.9L285.44,0l-49.47,207.12-44.91-3.74-106.96,38.57L0,443.99l11.66,17.35,700.12,62.32,23.66-12.58-46.82-198.92ZM20.2,442.35l78.48-184.22,94.8-34.2,57.49,4.97,45.39-190.07,109.19,104.82,91.08,42.81,50.02,85.92,124.55,54.29,42.27,179.56L20.2,442.35Z"/>
      <path class="cls-2" d="M152.82,454.58l107.79,243.21,89.47,11.58,55.73,86.76,77.86,27.61,105.04,166.85,77.82-262.63,78.36-.63,22.22-77.6,32.97.38,57.13-131.01-704.39-64.5ZM785.37,629.09l-34.97-.4-22.3,77.9-78.23.64-69.45,234.43-85.21-135.42-77.91-27.51-56.95-88.83-90.21-11.51-85.77-198.97,641.72,56.31-40.71,93.36Z"/>
      <polygon class="cls-1" points="283.62 232.43 305.44 232.64 363.26 212.82 432.38 257.85 495.8 267.06 469.86 216.99 383.21 176.44 313.4 108.03 283.62 232.43"/>
      <polygon class="cls-2" points="297.67 173.73 317.73 162.89 329.76 181.55 351.43 163.09 383.6 176.56 313.59 107.97 297.67 173.73"/>
      <polygon class="cls-2" points="398.35 698.07 449.52 700.62 505.24 726.4 579.87 707.71 612.09 709.43 565.57 863.2 509.32 778.59 433.01 751.24 398.35 698.07"/>
      <path class="cls-2" d="M813.74,367.03l31.26,44.4-60.31,69.13-22.26-1.86,51.31-111.66M811.36,341.07l-9.44,20.53-51.31,111.66-7.74,16.84,18.46,1.55,22.26,1.86,6.56.55,4.32-4.96,60.31-69.13,6.71-7.69-5.87-8.34-31.26-44.4-13.01-18.48h0Z"/>
      <g>
        <path class="cls-2" d="M341.6,559.26l-49.89-5.37s6.49,18.56,6.68,20.46l43.17,4.82.87,32.94-33.64-2.94,7.97,45.74-29.33-2.49s-55.35-140.56-55.49-146.12l107.95,10.55,1.71,42.41Z"/>
        <path class="cls-2" d="M354.57,658.02l-1.75-140.03s74.12,7.1,77.83,7.83c3.7.73,14.74,1.1,16.75,2.92,2,1.83,3.36,4.69,4.07,8.59.71,3.88.32,5.08.24,11.84-.08,6.7-5.2,53.6-5.2,53.6l-19.87-1.77c-.02,1.79-.66,17.81-.48,18.2.18.39,19.77,2.44,19.77,2.44l-3.09,43.96-30.66-2.68-9.83-32.07-11.62-1.07-6.59,30.85-29.57-2.6ZM393.54,551.67l.14,46.39,11.04.84s6.79-44.54,6.4-47.64c-.14-.33-17.58.41-17.58.41Z"/>
        <path class="cls-2" d="M698.11,687.22l-45.02-3.81,43.19-82.47-24.11-1.92,18.87-52.44,87.03,7.07-25.03,50.04-25.77.08-29.17,83.46Z"/>
        <path class="cls-2" d="M535.98,534.36l26.42,2.94c-4.19,14.84-27.54,149.57-27.54,149.57l-28.64,6.13-49.61-26.29,9.29-138.27,38.25,3.23,31.84,2.69ZM504.61,573.34l-6.81,52.38,11.72,1.04s10.25-47.56,10.09-51.68c-.21-.43-14.99-1.74-14.99-1.74Z"/>
        <path class="cls-2" d="M578.44,537.9c13.85,1.48,68.58,4.18,80.17,6.08,13.28,2.18,15.69,10.3,7.83,29.95-5.79,16.32-30.9,93.65-36.37,107.56l-33.15-3.02,23.02-88.42c1.6-4.05-13.74-3.79-16.3-3.75l-21.94,90.92-31.12,5.96,27.86-145.29Z"/>
      </g>
      <g>
        <path class="cls-2" d="M269.24,268.37l-5.28,82.38-84.3-7.86,15.5-51.11-20.84,9.51-24.68,83.59s14.75,1.86,17.44,2.18l7.83-27.42,88.37,8.07-4.98,65.99-182.53-18.02,53.26-126.47,73.45-26.58,66.77,5.75Z"/>
        <path class="cls-2" d="M414.93,283.65c-.82,16.37-9.22,120.89-10.71,135.44-.87,19.24-8.41,28.88-27.5,26.83-22.01-2.36-52.67-5.74-74.76-7.46-27.32-2.12-23.92-36.8-23.92-36.8,0,0,7.24-116.44,8.28-132.19l73.52-22.01,55.1,36.2ZM341.37,308.18l-4.17,65.26c-.08,2.25,14.45,7.01,16.69,7.26-.08-5.18,4.4-63.02,3.36-67.03-.36-.42-15.88-5.48-15.88-5.48Z"/>
        <path class="cls-2" d="M473.34,456.13c-10.33-.96-17.21-1.25-23.84-2.24-14.23-1.17-24.83-12.98-24.94-32.76-.16-6.88-.09-15.7.23-26.43l6.98-105.85,60.76,3.19-2.9,54.54,21.4,2.46-6.6,110.38-31.08-3.29Z"/>
        <path class="cls-2" d="M522.58,460.95l6.41-160.96,122.97,52.3,28.49,124.67s-129.6-15.09-157.87-16.01ZM602.92,379.56c.04-2.09-.12-3.34-.47-3.73-.35-.39-12.86-7.95-15.02-8.21l-3.04,47.86c2.17.23,16.09,7.27,16.46,6.96,1.13.48,1.81-41.5,2.08-42.88Z"/>
      </g>
      <path class="cls-2" d="M861.1,452.52l36.51,13.15-45.17,20.97-21.42-2,30.09-32.12M857.46,437.39l-5.85,6.24-30.09,32.12-18.14,19.36,26.42,2.47,21.42,2,3.5.33,3.19-1.48,45.17-20.97,28.67-13.31-29.74-10.71-36.51-13.15-8.05-2.9h0Z"/>
    </g>
  </g>
</svg>